<svg height="32" viewBox="0 0 150 32" width="150" xmlns="http://www.w3.org/2000/svg"><g fill="none" fill-rule="evenodd"><path d="m19.8464343 9.22335854v10.79039026c0 .8912893.1494857 1.5030403.4458527 1.8404682.3010547.3353417.9937931.5011872 2.0870697.5011872v1.86498h-11.4025782v-1.86498h.4281436c1.0578584 0 1.7255957-.1767976 2.0052954-.5293497.2776162-.3499445.4166847-.9559587.4166847-1.8123057v-5.2460385c0-.8678206-.141152-1.4759209-.4271019-1.8211717-.2869916-.3462938-.9489995-.5194407-1.9948782-.5194407h-.4281436v-1.8670661z" fill="#c40f11"/><path d="m12.8617041 3.2981357c0-.89546157.3385563-1.6714935 1.0203568-2.32131594.6807587-.64982243 1.4985025-.97681976 2.4506272-.97681976.9625417 0 1.7813273.32126053 2.4485437.96743228.6692999.64252106 1.0031686 1.41855299 1.0031686 2.33070342 0 .91058586-.3385564 1.6887039-1.0141066 2.33331106-.672425.64304259-1.4886062.96430312-2.4376057.96430312-.9917098 0-1.8157039-.33064801-2.480316-.99037946-.6588828-.66442519-.990668-1.43367727-.990668-2.30723472" fill="#c40f11"/><g fill="#999"><path d="m4.35607448 6.30812783c0-.78020414.29584618-1.45453834.88701767-2.01883038.59429663-.56324898 1.30318156-.84591652 2.1313425-.84591652.8370155 0 1.54954643.27849533 2.13134251.83652904.58075434.56064135.87087114 1.23549707.87087114 2.02821786 0 .79219927-.2942836 1.46861957-.88128826 2.02821786-.58804635.56011982-1.29380615.84070126-2.12092539.84070126-.86149572 0-1.57767264-.28788281-2.15582273-.86260538-.5745041-.57628716-.86253744-1.24644914-.86253744-2.00631374"/><path d="m22.3703459 6.36210586c0-.86782065.3276184-1.61829777.9849386-2.24412997.6588828-.62687526 1.4485004-.94083441 2.3672903-.94083441.9318112 0 1.7198663.30926541 2.3667694.92988235.643257.62478914.968792 1.37526626.968792 2.25508203 0 .88085882-.3265767 1.63133594-.97973 2.25403898-.6510699.62270304-1.4375624.93405456-2.3558314.93405456-.9573333 0-1.7532011-.31969595-2.3948956-.95908785-.6390903-.64043495-.9573333-1.38361069-.9573333-2.22900569"/><path d="m5.2085594 13.0339987c0 1.3606635-1.16463388 2.4616066-2.60323799 2.4616066-1.43964582 0-2.60532141-1.1009431-2.60532141-2.4616066 0-1.3570129 1.16567559-2.4600421 2.60532141-2.4600421 1.43860411 0 2.60323799 1.1030292 2.60323799 2.4600421"/><path d="m4.56868788 20.2095299c0 1.1536174-.98962629 2.0881935-2.20842919 2.0881935-1.22505317 0-2.21572117-.9345761-2.21572117-2.0881935 0-1.156225.990668-2.0928872 2.21572117-2.0928872 1.2188029 0 2.20842919.9366622 2.20842919 2.0928872"/><path d="m7.52699336 26.0018677c0 .9799489-.8463909 1.7789281-1.88185251 1.7789281-1.03962846 0-1.88133166-.7989792-1.88133166-1.7789281 0-.9841211.8417032-1.7768419 1.88133166-1.7768419 1.03546161 0 1.88185251.7927208 1.88185251 1.7768419"/><path d="m12.44054 29.5741179c0 .8333999-.716177 1.5108633-1.6000695 1.5108633-.88232996 0-1.59850687-.6774634-1.59850687-1.5108633 0-.835486.71617691-1.5124278 1.59850687-1.5124278.8838925 0 1.6000695.6769418 1.6000695 1.5124278"/><path d="m17.8220235 30.7144364c0 .7092764-.6094014 1.2855636-1.3599548 1.2855636-.7479492 0-1.3573506-.5762872-1.3573506-1.2855636 0-.7092765.6094014-1.2855637 1.3573506-1.2855637.7505534 0 1.3599548.5762872 1.3599548 1.2855637"/><path d="m22.8200009 29.8359244c0 .6044496-.5187725 1.0936418-1.1589045 1.0936418-.636486 0-1.1552585-.4891922-1.1552585-1.0936418 0-.6034065.5187725-1.0915557 1.1552585-1.0915557.640132 0 1.1589045.4881492 1.1589045 1.0915557"/><path d="m26.6450627 27.7100767c0 .5142255-.4396024.9283178-.9818134.9283178-.5411693 0-.9818135-.4140923-.9818135-.9283178 0-.5121393.4406442-.9277962.9818135-.9277962.542211 0 .9818134.4156569.9818134.9277962"/><path d="m29.3907027 24.8335433c0 .4359964-.3713703.7890701-.8323278.7890701-.4614783 0-.8338903-.3530737-.8338903-.7890701 0-.4380825.372412-.7895916.8338903-.7895916.4609575 0 .8323278.3515091.8323278.7895916"/></g><path d="m106.409983 24.3985899h-3.492339v-14.0499329l3.492339-.0078229z" fill="#c40f11"/><path d="m121.661322 24.3726179h-2.876166l-6.041408-7.8145581v7.8406344h-3.449629v-14.099478h2.813663l6.189332 7.802563v-7.802563h3.364208z" fill="#c40f11"/><path d="m133.328704 19.4776713h-5.360129l.01198 4.8778405h-3.387126v-14.0634926h9.189982v3.0352862l-5.824211.0114735.005208 2.9867842h5.364296z" fill="#c40f11"/><path d="m146.273797 17.2606607c-.003126-.5611628-.080212-1.079039-.233865-1.5447624-.152611-.4678096-.385954-.8709499-.69378-1.2151576-.311472-.3436862-.683884-.6122725-1.131299-.8015867-.445853-.1893143-.959417-.2868398-1.541213-.2842831-1.115152 0-1.988628.360426-2.623551 1.070224-.638049.7113626-.950041 1.6448957-.950041 2.7932978.004687 1.1510097.327097 2.0845427.965146 2.7943407.645861.7118842 1.516732 1.0639148 2.623551 1.0618379.764096 0 1.410999-.1679409 1.948001-.4959812.537524-.328562.94327-.7885486 1.219845-1.3716156.2797-.5841101.417206-1.252186.417206-2.0063138m3.726203-.0083444c0 1.3147692-.276575 2.5205392-.828161 3.6282622-.550024 1.1030293-1.374018 1.9791943-2.471982 2.6311029-1.094319.6534731-2.429272.9825565-3.999653.9856912-1.592257.0015591-2.941273-.3332611-4.048092-1.0081169-1.104736-.671205-1.925605-1.5604083-2.463649-2.662916-.539086-1.1004216-.807848-2.2827229-.813056-3.5390811 0-1.2683533.263553-2.4464824.793784-3.5463825.530753-1.1051153 1.349538-1.9911894 2.448544-2.6665667 1.106819-.6753772 2.457919-1.0138481 4.049655-1.0159342 1.187031-.0067799 2.249577.1846205 3.181909.5705503.933895.3822792 1.703199.903806 2.304267 1.5593652.603672.6612961 1.057337 1.4295051 1.372455 2.3020195.311472.8772081.469812 1.7971815.473979 2.7620061" fill="#c40f11"/><path d="m46.8312514 12.3184117c-1.6865316-.9095428-2.4636486-1.1150244-4.085594-1.1098091-1.7193455.0020861-3.1595122.6070572-4.3142498 1.8050044-1.156821 1.1989902-1.8360172 2.6790833-1.8339338 4.4726141.0046878 1.8149134.6948219 3.3163891 1.8615392 4.4887815 1.1688007 1.1645694 2.6568861 1.7486794 4.4679022 1.7413781 1.5073571-.0026077 2.5688615-.192965 4.1454925-1.1984687l.5724206.8151464c-1.6214245 1.0289725-3.0626329 1.397692-4.6986414 1.3998075-2.1120708.0051858-3.8736056-.6821865-5.2840835-2.0621465-1.4089153-1.3794385-2.1209254-3.1025632-2.1261365-5.1657233-.00156-2.0803706.7156586-3.8139258 2.145929-5.2121392 1.4349581-1.3945628 3.145449-2.0965379 5.134077-2.0986646 1.5625678-.0051747 3.2595165.4928835 4.5658232 1.3820867z" fill="#2d2d2d"/><path d="m69.5922392 10.3316031.0031252.9090212h-6.6122662v5.6757766h6.2419376l.0031251.9225809h-6.2450627v5.752441h6.8034203l.0052086.8991123h-7.9175312v-14.158932z" fill="#2d2d2d"/><path d="m73.6187161 11.2203369v12.349234l3.1063848-.0073014c1.8292461-.008866 2.9402318-.5726365 4.1517427-1.7027851 1.2156778-1.126498 1.8240375-2.6201508 1.8198919-4.4840878-.0052298-1.8154349-.6094227-3.3023079-1.8125999-4.4475808-1.2016147-1.1494451-2.3469769-1.7189525-4.2574765-1.7142875zm-1.1260906-.9100643 3.9079822-.0114888c2.5047962-.0036355 4.002257.6493161 5.3247102 1.9661714 1.3245367 1.3178983 1.9865446 3.0180758 1.9938675 5.1083553.0051776 2.0522081-.6479757 3.7424766-1.9501156 5.0859297-1.3052649 1.3361518-2.7417856 2.0083999-5.1476192 2.0136151l-4.1288251.0140813z" fill="#2d2d2d"/><path d="m87.5025479 24.4490216-1.0948392.0026076v-14.1740563l1.0948392-.0020861z" fill="#2d2d2d"/><path d="m100.627701 10.2704801.003125.912672h-4.8830244v13.2478246l-1.1047355.0020861v-13.2499107h-4.9085464v-.912672z" fill="#2d2d2d"/><path d="m59.7936369 24.5360644-3.9308998-7.0239234c.0489605-.0161674.1026086-.0302486.1474022-.0490235 1.8922697-.7530848 2.6928252-1.8216933 2.6886584-3.4572014 0-1.1270195-.4047051-2.0172658-1.2104692-2.6738681-.8068059-.6560808-1.9683146-.9825566-3.489214-.9825566h-3.6246364v14.1855299l1.1219237-.0026076v-6.7005768l1.5229827.0041722c.5838795 0 1.305265-.0370284 1.9360216-.126731l3.7548504 6.8267863zm-8.3112983-7.6210716v-5.6502427h2.295933c1.2047398-.0025867 2.2573897.2388802 2.899605.7239002.6427363.4839769.9682712 1.1650909.970374 2.0360407.0031058.8892033-.3724313 1.5750111-.9969376 2.058988-.6338817.4839769-1.6959069.8292276-2.8902296.8318353z" fill="#2d2d2d"/></g></svg>